<?xml version="1.0" encoding="utf-8"?>
<!-- Generator: Adobe Illustrator 24.1.0, SVG Export Plug-In . SVG Version: 6.00 Build 0)  -->
<svg version="1.1" id="Layer_1" xmlns="http://www.w3.org/2000/svg" xmlns:xlink="http://www.w3.org/1999/xlink" x="0px" y="0px"
	 viewBox="0 0 255 115" style="enable-background:new 0 0 255 115;" xml:space="preserve">
<style type="text/css">
	.st0{fill:#006595;}
	.st1{fill-rule:evenodd;clip-rule:evenodd;fill:#006595;}
	.st2{fill:#A5CD39;}
	.st3{fill-rule:evenodd;clip-rule:evenodd;fill:#A5CD39;}
	.st4{fill:#006594;}
</style>
<g>
	<g>
		<path class="st0" d="M125.97,61.52V49.19c0-6.49-4.42-10.73-11.39-10.73c-7.25,0-11.67,5.08-11.67,11.53c0,6.64,4.61,12,11.11,12
			c2.87,0,4.47-0.94,6.12-2.16v-4.89c-1.41,1.79-3.34,3.11-5.69,3.11c-4.33,0-7.39-3.53-7.39-7.72c0-4.28,2.87-7.91,7.44-7.91
			c3.77,0,7.34,2.17,7.34,6.4v12.71H125.97L125.97,61.52z"/>
		<path class="st0" d="M133.56,71.69V51.64c0-6.21,3.29-9.22,7.25-9.22c4.42,0,7.53,3.25,7.53,7.86c0,4.66-2.96,7.77-7.44,7.77
			c-1.88,0-4.19-0.94-5.69-1.98v4.33c1.98,1.13,4.14,1.6,6.4,1.6c5.79,0,10.87-4.89,10.87-11.2c0-6.68-4.33-12.33-11.67-12.33
			c-6.64,0-11.39,4.99-11.39,12.42v20.8H133.56L133.56,71.69z"/>
		<path class="st0" d="M159.41,71.69V51.64c0-6.21,3.29-9.22,7.25-9.22c4.42,0,7.53,3.25,7.53,7.86c0,4.66-2.96,7.77-7.44,7.77
			c-1.88,0-4.19-0.94-5.69-1.98v4.33c1.98,1.13,4.14,1.6,6.4,1.6c5.79,0,10.87-4.89,10.87-11.2c0-6.68-4.33-12.33-11.67-12.33
			c-6.64,0-11.39,4.99-11.39,12.42v20.8H159.41L159.41,71.69z"/>
		<polygon class="st0" points="185.64,61.52 185.64,28.58 181.5,28.58 181.5,61.52 185.64,61.52 		"/>
		<path class="st1" d="M194.69,61.52V38.93h-4.14v22.59H194.69L194.69,61.52z M190.13,33.9c0,1.27,0.89,2.49,2.49,2.49
			c1.6,0,2.49-1.22,2.49-2.49c0-1.27-0.89-2.49-2.49-2.49C191.02,31.4,190.13,32.62,190.13,33.9L190.13,33.9z"/>
		<path class="st0" d="M221.02,45.61c-2.12-4.38-5.65-7.15-10.92-7.15c-6.26,0-11.72,4.8-11.72,11.77c0,6.97,5.46,11.77,11.72,11.77
			c6.49,0,11.3-4.52,11.77-10.5l-4.19-0.52c-0.85,4.14-2.68,7.06-7.58,7.06c-4.28,0-7.39-3.2-7.39-7.81c0-4.61,3.11-7.81,7.39-7.81
			c2.54,0,3.72,0.75,5.13,2.17l-11.15,6.21l1.69,3.29L221.02,45.61L221.02,45.61z"/>
		<path class="st0" d="M243.01,28.58v20.24c0,6.21-3.29,9.22-7.25,9.22c-4.42,0-7.53-3.25-7.53-7.86c0-4.66,2.97-7.77,7.44-7.77
			c1.88,0,4.19,0.94,5.69,1.98v-4.33c-1.98-1.13-4.14-1.6-6.4-1.6c-5.79,0-10.87,4.89-10.87,11.2c0,6.68,4.33,12.33,11.67,12.33
			c6.64,0,11.39-4.99,11.39-12.42V28.58H243.01L243.01,28.58z"/>
	</g>
	<g>
		<path class="st2" d="M108.45,75.76h-3.56v-2.48h-1.82v9.21c0,1.97,1.08,3.21,2.94,3.21h2.44v-1.74h-2.19
			c-0.93,0-1.37-0.31-1.37-1.24V77.5h3.56V75.76L108.45,75.76z"/>
		<path class="st2" d="M122.51,78.7c-0.93-1.92-2.48-3.14-4.8-3.14c-2.75,0-5.15,2.11-5.15,5.17c0,3.06,2.4,5.17,5.15,5.17
			c2.85,0,4.96-1.99,5.17-4.61l-1.84-0.23c-0.37,1.82-1.18,3.1-3.33,3.1c-1.88,0-3.25-1.41-3.25-3.43c0-2.03,1.37-3.43,3.25-3.43
			c1.12,0,1.63,0.33,2.25,0.95l-4.9,2.73l0.74,1.45L122.51,78.7L122.51,78.7z"/>
		<path class="st2" d="M134.05,75.76h-1.74c-2.32,0-4.99,1.78-4.99,4.96c0,3.19,2.67,4.96,4.99,4.96h1.74v-1.74h-1.41
			c-1.72,0-3.41-1.12-3.41-3.23c0-2.11,1.7-3.23,3.41-3.23h1.41V75.76L134.05,75.76z"/>
		<path class="st2" d="M140.44,85.69V79.9c0-1.53,1.1-2.61,2.42-2.61c1.3,0,2.42,0.58,2.42,2.61v5.79h1.82V79.9
			c0-3.35-1.82-4.34-4.12-4.34c-1.06,0-1.99,0.46-2.54,1.08v-5.42h-1.82v14.48H140.44L140.44,85.69z"/>
		<path class="st2" d="M153.99,85.69V79.9c0-1.53,1.12-2.61,2.42-2.61c1.3,0,2.42,1.08,2.42,2.61v5.79h1.82V79.9
			c0-2.61-1.82-4.34-4.24-4.34s-4.24,1.74-4.24,4.34v5.79H153.99L153.99,85.69z"/>
		<path class="st3" d="M165.39,80.73c0,3.06,2.4,5.17,5.15,5.17c2.75,0,5.15-2.11,5.15-5.17c0-3.06-2.4-5.17-5.15-5.17
			C167.79,75.56,165.39,77.67,165.39,80.73L165.39,80.73z M167.3,80.73c0-2.03,1.37-3.43,3.25-3.43s3.25,1.41,3.25,3.43
			c0,2.03-1.37,3.43-3.25,3.43S167.3,82.76,167.3,80.73L167.3,80.73z"/>
		<polygon class="st2" points="182.5,85.69 182.5,71.21 180.68,71.21 180.68,85.69 182.5,85.69 		"/>
		<path class="st3" d="M187.48,80.73c0,3.06,2.4,5.17,5.15,5.17c2.75,0,5.15-2.11,5.15-5.17c0-3.06-2.4-5.17-5.15-5.17
			C189.88,75.56,187.48,77.67,187.48,80.73L187.48,80.73z M189.38,80.73c0-2.03,1.37-3.43,3.25-3.43s3.25,1.41,3.25,3.43
			c0,2.03-1.37,3.43-3.25,3.43S189.38,82.76,189.38,80.73L189.38,80.73z"/>
		<path class="st2" d="M209.71,83.36c-0.7,0.41-1.49,0.81-2.32,0.81c-1.88,0-3.33-1.26-3.33-3.21c0-1.94,1.05-3.66,3.23-3.66
			c1.7,0,3.14,1.37,3.14,3.6v4.63c0,2.42-1.82,3.14-3.45,3.14c-0.93,0-1.84-0.25-2.75-0.5l-0.43,1.65c1.06,0.35,2.15,0.58,3.27,0.58
			c2.92,0,5.19-1.78,5.19-5.5v-4.43c0-2.48-1.86-4.92-4.88-4.92c-3.1,0-5.13,2.32-5.13,5.3c0,2.9,2.23,5.05,5.13,5.05
			c0.68,0,1.65-0.29,2.34-0.66V83.36L209.71,83.36z"/>
		<path class="st3" d="M219.25,85.69v-9.93h-1.82v9.93H219.25L219.25,85.69z M217.24,73.55c0,0.56,0.39,1.1,1.1,1.1
			c0.7,0,1.1-0.54,1.1-1.1c0-0.56-0.39-1.1-1.1-1.1C217.63,72.45,217.24,72.99,217.24,73.55L217.24,73.55z"/>
		<path class="st2" d="M234.37,78.7c-0.93-1.92-2.48-3.14-4.8-3.14c-2.75,0-5.15,2.11-5.15,5.17c0,3.06,2.4,5.17,5.15,5.17
			c2.85,0,4.96-1.99,5.17-4.61l-1.84-0.23c-0.37,1.82-1.18,3.1-3.33,3.1c-1.88,0-3.25-1.41-3.25-3.43c0-2.03,1.37-3.43,3.25-3.43
			c1.12,0,1.63,0.33,2.25,0.95l-4.9,2.73l0.74,1.45L234.37,78.7L234.37,78.7z"/>
		<path class="st2" d="M239.08,85.69h5.09c1.76,0,3.08-0.89,3.08-2.77c0-3.56-6.27-2.83-6.27-4.55c0.04-0.62,0.29-0.87,1.18-0.87
			h4.59v-1.74h-4.28c-2.17,0-3.39,0.93-3.39,2.69c0,3.43,6.27,2.73,6.27,4.55c0,0.62-0.33,0.95-1.18,0.95h-5.09V85.69L239.08,85.69z
			"/>
	</g>
</g>
<g>
	<path id="XMLID_1_" class="st2" d="M32.39,47.16c-8.16,0-14.7,5.5-14.7,14.91c0,9.41,6.54,15.02,14.7,15.02
		C51.7,77.09,51.7,47.16,32.39,47.16z"/>
	<path class="st4" d="M61.04,70.24V47.49h-3.11c-1.47-3.77-3.92-6.85-7.16-9.11h10.26V18.44c-4.02-1.35-8.32-2.11-12.79-2.11
		c-22.26,0-40.31,18.05-40.31,40.31c0,1.61,0.12,3.19,0.3,4.76c0.05-14.16,10.08-24.04,24.42-24.04c14.49,0,23.85,8.83,23.85,22.5
		v25.78h-9.5V81.7c-0.19,0.16-0.39,0.32-0.58,0.49c-2.55,2.17-5.19,4.42-14.92,4.42h-0.01c-6.44,0-12.1-2.56-16.23-6.81
		c7.29,10.37,19.33,17.16,32.97,17.16c10.84,0,20.66-4.3,27.9-11.26h-0.91C66.48,85.7,61.04,79.77,61.04,70.24z"/>
	<g>
		<path class="st4" d="M88.64,56.62c0-0.24-0.02-0.47-0.02-0.7c-0.18-10.02-4.03-19.1-10.26-26.04c-0.03-0.03-0.05-0.06-0.08-0.09
			c-0.43-0.48-0.88-0.95-1.34-1.41c-0.24-0.24-0.47-0.48-0.71-0.71c-0.2-0.19-0.41-0.38-0.61-0.57c-1.58-1.47-3.27-2.83-5.07-4.03
			v15.3h9v9.1h-1.24h-7.68v23.8c0,3.85,1.59,5.28,5.86,5.28h6.86c3.27-5.73,5.18-12.32,5.28-19.36c0-0.19,0.02-0.37,0.02-0.55
			c0,0,0-0.01,0-0.01C88.64,56.63,88.64,56.63,88.64,56.62z"/>
	</g>
</g>
</svg>
